<?xml version="1.0" standalone="no"?>
<!DOCTYPE svg PUBLIC "-//W3C//DTD SVG 20010904//EN"
 "http://www.w3.org/TR/2001/REC-SVG-20010904/DTD/svg10.dtd">
<svg version="1.0" xmlns="http://www.w3.org/2000/svg"
 width="700.000000pt" height="700.000000pt" viewBox="0 0 700.000000 700.000000"
 preserveAspectRatio="xMidYMid meet">
<metadata>
Created by potrace 1.14, written by Peter Selinger 2001-2017
</metadata>
<g transform="translate(0.000000,700.000000) scale(0.100000,-0.100000)"
fill="#000000" stroke="none">
<path d="M3415 5957 c-68 -23 -101 -44 -148 -97 -75 -83 -77 -95 -77 -482 l0
-338 -586 0 c-669 0 -662 1 -834 -82 -92 -45 -115 -61 -195 -142 -49 -50 -105
-117 -124 -148 -46 -80 -90 -211 -102 -310 -6 -53 -9 -575 -7 -1448 l3 -1365
27 -81 c66 -193 209 -336 402 -402 l81 -27 1635 0 c1340 0 1645 2 1690 14 177
43 331 164 409 322 76 153 72 63 69 1632 l-3 1402 -23 73 c-59 191 -163 331
-324 438 -84 55 -141 80 -243 105 -74 17 -123 19 -667 19 l-588 0 0 318 c0
352 -6 398 -60 478 -35 50 -80 86 -134 109 -52 22 -152 28 -201 12z m-670
-2114 c74 -38 147 -115 183 -191 23 -49 27 -70 27 -152 0 -82 -4 -103 -27
-152 -35 -76 -109 -153 -183 -192 -57 -29 -66 -31 -170 -31 -100 0 -115 3
-166 28 -76 38 -145 108 -183 187 -28 59 -31 74 -31 160 0 83 4 103 27 153 34
72 65 111 130 159 71 54 124 68 238 65 83 -3 103 -7 155 -34z m1845 4 c75 -36
146 -108 184 -187 28 -59 31 -74 31 -160 0 -86 -3 -101 -31 -160 -38 -79 -108
-151 -184 -188 -50 -24 -65 -27 -165 -27 -106 0 -112 1 -173 34 -135 73 -206
190 -206 341 0 106 26 178 91 250 87 97 170 132 303 127 78 -3 105 -8 150 -30z
m-1710 -1732 l0 -155 -305 0 -305 0 0 155 0 155 305 0 305 0 0 -155z m930 0
l0 -155 -310 0 -310 0 0 148 c0 82 3 152 7 155 3 4 143 7 310 7 l303 0 0 -155z
m920 0 l0 -155 -305 0 -305 0 0 155 0 155 305 0 305 0 0 -155z"/>
<path d="M633 3791 c-97 -33 -156 -88 -200 -186 -17 -37 -18 -87 -18 -720 l0
-680 26 -55 c34 -74 76 -120 141 -156 53 -29 53 -29 251 -32 l197 -4 0 926 0
926 -172 0 c-140 -1 -183 -4 -225 -19z"/>
<path d="M5970 2885 l0 -927 193 4 c179 3 195 5 241 27 66 33 122 91 155 160
l26 56 3 638 c2 414 -1 657 -8 694 -21 114 -80 196 -175 243 -47 23 -62 25
-242 28 l-193 4 0 -927z"/>
</g>
</svg>
