<svg xmlns="http://www.w3.org/2000/svg" viewBox="0 0 260 260" style="enable-background:new 0 0 260 260" xml:space="preserve"><path style="fill:#47a0ce" d="M0 0h260v260H0z"/><path d="M18.8 121.9c-2.1 2.1-3.4 5-3.4 8.1v45.8c0 3 1.2 5.9 3.4 8.1s5.1 3.4 8.1 3.4h11.5v-68.7H26.9c-3-.1-5.9 1.2-8.1 3.3zm162.7-49.2h-40.1V49.8c0-6.3-5.1-11.5-11.5-11.5-6.3 0-11.5 5.1-11.5 11.5v22.9H78.5c-15.8 0-28.6 12.8-28.6 28.6v97.4c0 12.7 10.2 22.9 22.9 22.9h114.5c12.7 0 22.9-10.2 22.9-22.9v-97.4c0-15.8-12.8-28.6-28.7-28.6zm-74.4 114.6H84.2v-11.5h22.9v11.5zm-11.5-43c-7.9 0-14.3-6.4-14.3-14.3s6.4-14.3 14.3-14.3S110 122.1 110 130s-6.5 14.3-14.4 14.3zm45.9 43h-22.9v-11.5h22.9v11.5zm34.3 0h-22.9v-11.5h22.9v11.5zm-11.4-43c-7.9 0-14.3-6.4-14.3-14.3s6.4-14.3 14.3-14.3 14.3 6.4 14.3 14.3-6.4 14.3-14.3 14.3zm76.8-22.4c-2.1-2.1-5-3.4-8.1-3.4h-11.5v68.7h11.5c3 0 5.9-1.2 8.1-3.4s3.4-5.1 3.4-8.1V130c-.1-3-1.3-5.9-3.4-8.1z"/></svg>