<?xml version="1.0" encoding="utf-8"?>
<!-- Generator: Adobe Illustrator 26.1.0, SVG Export Plug-In . SVG Version: 6.00 Build 0)  -->
<svg version="1.1" id="Layer_1" xmlns="http://www.w3.org/2000/svg" xmlns:xlink="http://www.w3.org/1999/xlink" x="0px" y="0px"
	 viewBox="0 0 645.7 620.3" style="enable-background:new 0 0 645.7 620.3;" xml:space="preserve">
<style type="text/css">
	.st0{fill:#FFFFFF;}
</style>
<path class="st0" d="M645.7,178.8c-2.1,4.7-5.6,7.8-10.1,10.3c-40.5,22-80.9,44.1-121.4,66.1c-8.4,4.5-12.5,4-18.7-3.3
	c-10.9-12.9-21.3-26.2-31.9-39.3c-0.1-0.1-0.1-0.2-0.2-0.3c-4.6-5.8-5-6.2-10.2-1.2C445,219,435,220,424.6,220
	c-18-0.1-35.9-0.2-53.9-0.2c-13.1,0-22.4-6.8-28.5-17.5c-3.1-5.5-6.3-7.1-12.4-7c-35,0.3-69.9,0.2-104.9,0.2c-1.3,0-2.6,0-4.6,0
	c1.4,2.6,2.4,4.7,3.6,6.8c48.2,85.3,96.5,170.5,144.7,255.8c5.4,9.6,11,19.2,16.3,28.9c1.2,2.2,2.5,3,5.1,3
	c29.9,0.3,59.8,1.1,89.7,1.2c15.4,0,25.7,7.5,33.4,20c3,4.8,4.2,9.7,4.2,15.5c-0.3,27.6-0.1,55.2-0.1,82.8c0,2.5-1,4.1-2.6,5.9
	c-3.6,4-7.8,5-13.1,5c-145.2-0.1-290.4-0.1-435.6-0.1c-7,0-11.7-3.7-13.4-10.6c-0.4-1.7-0.7-3.5-0.7-5.2c0-27.1,0-54.1,0.2-81.2
	c0-2.1,1.2-4.1,2-6.1c4.7-11.6,12.6-20.1,24.4-24.7c1.7-0.6,3.5-1.2,5.3-1.2c34.7-0.5,69.5-0.9,104.2-1.3c0.7,0,1.5-0.1,2.5-0.1
	c-0.5-1.1-0.8-2-1.2-2.8C147.6,408.6,106.1,330,64.5,251.5c-2.8-5.2-5.8-10.3-8.6-15.5c-3.8-7.2-8.9-13.2-15-18.8
	C20.6,198.7,7,176.1,2.6,148.6C-5.3,97.2,20.9,47.8,67.4,25.1c18-8.8,36.7-10.9,56.2-10.3c36.1,1.1,64.2,17.5,86.2,45.3
	c2.5,3.1,4.7,4.5,8.8,4.5c38.8-0.2,77.6-0.1,116.4-0.1c2.4,0,3.6-0.6,4.8-2.8c7-13.8,17.8-22.4,33.8-22.7
	c18.2-0.3,36.4-0.4,54.5-0.1c10.5,0.2,19.9,3.8,27.4,11.6c3.1,3.2,3.1,2.9,5.9-0.5c11.9-14.6,23.8-29.2,35.8-43.7
	c4.2-5.1,8-5.8,13.9-2.8c15.9,8.1,31.8,16.2,47.4,24.8c26,14.3,51.8,28.9,77.7,43.4c4,2.2,7.9,4.6,9.6,9.3c0,1.8,0,3.5,0,5.3
	c-5,9.5-9.4,11.2-19.4,6.5s-19.8-9.9-29.5-15.1c-28.3-15.1-56.5-30.3-84.7-45.5c-2.3-1.2-3.6-1-5.2,1c-12.7,16-25.4,31.8-38.1,47.8
	c-0.8,1-1.3,2.5-1.3,3.8c-0.1,30.1-0.1,60.3,0,90.4c0,1.3,0.5,2.8,1.3,3.9c12,15.2,24,30.4,36.1,45.6c1.3,1.7,2.8,3.3,4.2,5
	c2-1,3.8-1.9,5.5-2.8c30.3-16.4,60.5-33,90.9-49.3c8-4.3,16.2-8.2,24.6-11.7c6.7-2.8,11.6-0.4,14.7,6.2c0.3,0.6,0.6,1.1,0.9,1.7
	C645.7,175.3,645.7,177.1,645.7,178.8z M90.8,243.2c1.1,2.2,1.7,3.5,2.4,4.8c41.9,79.8,83.8,159.6,125.7,239.5
	c1,1.9,2.2,2.3,4.1,2.3c16,0,32,0.1,48,0.1c26.1,0,52.1-0.1,78.2-0.1c2.2,0,4.4-0.4,7.3-0.7C304,396.4,252,304.5,199.6,212
	C168.6,240.4,132.6,250.8,90.8,243.2z M79.2,593.5c137.6,0,274.7,0,411.8,0c0.1-0.5,0.2-0.8,0.2-1.1c-0.1-18.1-0.1-36.2-0.3-54.2
	c-0.1-4.3-0.8-8.7-1.7-13c-1-4.4-2.7-5.7-7.1-5.8c-21.6-0.5-43.2-1.1-64.7-1.1c-109-0.1-218.1-0.1-327.1-0.1
	c-5.7,0-11.1,5.4-11.1,11c0,20.3,0,40.5,0,60.8C79.2,591.1,79.2,592.3,79.2,593.5z M438.5,129.8c0-17.9,0-35.7,0-53.6
	c0-4.1-5.1-9.2-9.2-9.2c-18.6,0-37.3,0-55.9,0c-4.6,0-9.3,4.6-9.3,9.3c0,26.6,0,53.3,0.1,79.9c0,9.1,0.4,18.2,0.7,27.3
	c0.2,5.3,2.3,7.7,7.6,8.5c2.5,0.4,5,0.7,7.5,0.7c16.1,0.2,32.2,0.2,48.3,0.3c4.1,0,10.1-6.1,10.1-10.2
	C438.5,165.1,438.5,147.4,438.5,129.8z M207,126.6c0.4-41.5-36.6-88.5-93.2-86.9C68.8,41,27.5,81.3,27.2,128
	c-0.3,49.4,39.7,92.6,91.4,91.7C171.5,218.7,209.5,173.8,207,126.6z M334.8,167.6c0-25.3,0-50.3,0-75.3c-35.9,0-71.6,0-107.2,0
	c6.7,25.2,6.6,50.2,0,75.3C263.3,167.6,298.9,167.6,334.8,167.6z"/>
<path class="st0" d="M117.4,201.9c-40.4,0.2-72.3-31.5-72.6-71.8c-0.4-42.2,35.8-72.6,71.3-73c36.3-0.4,73.2,30.6,73.5,71.9
	C189.9,169.1,156,203.1,117.4,201.9z M163,129.9c2.2-24.8-21.2-47-46.4-46.6c-25.3,0.4-46.1,21.1-46.1,46.8
	c0,25.4,21.3,46,47.1,46.3C141.1,176.6,165.1,155.6,163,129.9z"/>
</svg>
