<?xml version="1.0" encoding="utf-8"?>
<!-- Generator: Adobe Illustrator 26.1.0, SVG Export Plug-In . SVG Version: 6.00 Build 0)  -->
<svg version="1.1" id="Layer_1" xmlns="http://www.w3.org/2000/svg" xmlns:xlink="http://www.w3.org/1999/xlink" x="0px" y="0px"
	 viewBox="0 0 533.5 620" style="enable-background:new 0 0 533.5 620;" xml:space="preserve">
<style type="text/css">
	.st0{fill:#FFFFFF;}
</style>
<path class="st0" d="M147.7,620c0.2-10,0.4-20,0.6-30c0.2-5.6,1.2-7.1,6.9-7.8c5.4-0.7,10.9-0.8,16.7-1.2c0.1-0.8,0.2-1.8,0.2-2.8
	c0-12.5,0-25,0.1-37.6c0-2.1-0.9-3-2.5-4.2c-4.3-3-8.7-6-12.4-9.6c-16.4-16.4-9.3-40.6,7-50.7c0.4-0.3,0.9-0.6,1.4-0.8
	c5.9-1.7,6.9-5.8,6.6-11.5c-0.6-10.3-0.4-20.6-0.5-30.9c0-2.6-0.8-4-3.7-4.3c-2.1-0.2-4.1-1.5-6-2.5c-2.5-1.3-3.7-3.5-3.7-6.4
	c-0.2-19.6-0.6-39.1-0.7-58.7c-0.1-17.2,0-34.3,0-51.5c0-1.1,0-2.3,0-3.5c-4.6,0-9,0.3-13.3-0.1c-5.4-0.5-7.9,1.9-10,6.6
	c-5.2,11.2-11,22.2-16.6,33.3c-2.3,4.5-3,8.8-1.9,14.2c2.3,11.2-2.2,20.3-11.4,26.8c-8.6,6.1-19.8,6.2-28.4,0.2
	c-9.2-6.4-13.9-15.4-11.6-26.6c1.2-5.9,0.4-10.6-2.2-15.8c-6.9-13.8-13.4-27.8-19.9-41.8c-0.9-2-2.1-2.6-4.2-3
	c-6.2-0.9-12.7-1.3-18.4-3.6c-11.4-4.7-17.3-13.8-17.8-26c-0.3-7.6-0.1-15.1-0.2-22.7c0-5.1,3.1-8.1,7.3-10.2
	c3.7-1.8,9.9,2.2,11.2,7.1c0.5,1.9,0.5,3.9,0.6,5.9c0.2,6.3,0,12.6,0.4,18.9c0.5,7.2,4.8,10.8,12.1,10.8c1.3,0,2.7,0,4.5,0
	c0-2.1,0-3.9,0-5.8c0.2-7.7,0.2-15.4,0.7-23c0.4-6.5,2.8-9.2,7.7-9.8c5.2-0.6,10.3,3.3,10.5,8.5c0.4,9.2,0.3,18.5,0.6,27.8
	c0.1,2.1,0.5,4.4,1.5,6.3c8.1,17,16.4,33.8,24.5,50.8c1,2.1,2.2,3.2,4.6,3.3c6.5,0.4,6.5,0.6,9.4-5.2c5.7-11.2,11.4-22.5,17.2-33.7
	c1.2-2.2,1.2-3.9-0.1-6c-3.4-5.8-5-11.9-4.4-18.7c1.1-11.7,10.5-25.8,28.5-26.5c5.7-0.2,11.4-0.5,17-1c1.2-0.1,3-1,3.3-2
	c2.4-6.9,7.8-8.9,14.4-9.1c13.5-0.3,26.9-0.5,40.4-0.7c9.4-0.1,18.7,0,28.3,0c0-5.6,0-11,0-17c-1.1,0-2.3,0-3.5,0
	c-17.9-0.2-35.8-0.6-53.6-0.4c-13.7,0.1-27.3-10.6-27.1-27.5c0.2-13.1-0.2-26.3-0.1-39.5c0-2.4-0.3-3.7-3.1-4.8
	c-3.2-1.3-6.1-3.7-8.6-6.1c-2.9-2.7-5.9-4.2-9.9-4c-1.9,0.1-3.8,0.1-5.7,0.1c-3.2-0.1-5.6,1.2-7.8,3.4c-8.7,8.5-17.9,8.1-25.9-1.1
	c-4.1-4.7-4.2-14.5,0-19.3c7.8-9,17.7-9.2,26.4-1.1c2,1.9,4.9,3.3,7.6,3.9c6.1,1.4,12,1.9,15.9-5.1c1.5-2.6,4.8-4.3,7.5-6.1
	c1.9-1.3,3-2.7,3.3-5c1.1-7.7,1.4-15.6,3.7-23C174.8,38.2,205,11.3,250.8,2c68.7-8.2,113.6,37.7,123.5,87.2
	c1.2,5.9,1.7,11.9,2.3,17.8c0.2,1.8,0.6,2.9,2.6,3.2c5.5,0.9,9.8,3.9,13.1,8.1c4.2,5.3,9.8,5.2,15.5,3.9c1.7-0.4,3-2.4,4.4-3.8
	c4.3-4.5,9.3-7.7,15.7-5.9c6.6,1.9,12.1,5.4,13.7,12.9c1.4,6.7-1.9,13.6-8.3,17.7c-5.9,3.7-11.8,3.5-17.6-0.8
	c-0.6-0.4-1.3-0.8-1.7-1.4c-4.5-5.4-10.5-5.1-16.5-4.4c-1.6,0.2-3.4,1.2-4.7,2.4c-4,3.6-8.5,6.1-13.9,7c-2.4,0.4-3.1,1.6-3.1,4
	c-0.3,15.5-0.7,30.9-1.4,46.4c-0.5,11.4-10.2,21.1-21.7,21.4c-19.1,0.5-38.3,0.5-57.4,0.7c-1.4,0-2.7,0-4.4,0c0,5.6,0,11.1,0,17
	c1.3,0,2.6,0,3.8,0c18.7,0,37.5,0,56.2,0.1c5,0,10.1,0.6,15.1,1.1c4.7,0.4,7.8,2.9,9.3,7.4c0.9,2.8,2.6,3.4,5.4,3.5
	c6.7,0.2,13.4,0.7,20.1,1.2c15.7,1.2,30.8,20.9,21.8,40.5c-2.7,5.9-2.4,10.1,0.5,15.5c5.5,10,10.4,20.4,15.4,30.7
	c1.1,2.2,2.3,2.8,4.7,3.1c5,0.6,7.3-1.4,9.4-5.8c7.7-16.2,16-32.2,24-48.3c0.8-1.7,1.3-3.8,1.4-5.7c0.3-9.4,0.2-18.7,0.5-28.1
	c0.2-6,5.4-9.7,11.3-8.8c3.7,0.6,5.7,2.9,6.2,6.2c0.7,4.2,1.1,8.5,1.3,12.8c0.2,6.1,0.1,12.2,0.1,18.3c0,0.2,0.1,0.4,0.2,1
	c5,0.4,10,0.9,13.7-3.6c1.2-1.5,2.3-3.4,2.5-5.2c0.4-5.7,0.4-11.3,0.6-17c0.1-3.1,0.1-6.4,0.7-9.4c0.4-2,1.6-4.3,3.1-5.5
	c5.7-4.5,14.5-1,14.8,6.3c0.5,10.4,0.8,21-0.9,31.1c-2,11.3-10.5,18.2-21.5,21.2c-4.3,1.2-8.9,1.5-13.4,2c-1.7,0.2-2.8,0.6-3.6,2.3
	c-7.7,16.2-15.6,32.4-23.2,48.6c-0.6,1.3-0.5,3-0.4,4.5c0.3,4.4,1.6,8.8,1.2,13.1c-1.5,13.1-14.5,23.8-27,23
	c-14-1-25.3-12.4-25.6-26.1c0-2.1,0.1-4.3,0.8-6.2c1.2-3.3,0.7-6.2-0.7-9.1c-6-12.5-12.5-24.8-18.1-37.5c-2.5-5.6-5.5-7.8-11.5-7
	c-4.2,0.6-8.6,0.1-12.9,0.2c-0.2,0-0.4,0.1-0.9,0.4c0,1.2,0,2.5,0,3.9c0,36.3,0,72.6,0,108.9c0,5.5-3.9,9.7-9.3,10
	c-5.2,0.4-5.2,0.4-5.2,5.6c0,11.4,0.1,22.7-0.1,34.1c0,2.6,0.9,4,3.2,5c9.1,4.1,16.1,10.3,19.3,20.1c5.5,17-1.4,33.8-17.4,41.7
	c-3.9,1.9-5.1,4.1-5,8.3c0.3,11.4,0.1,22.7,0.1,34.1c0,1.1,0,2.3,0,3.8c4,0,7.5,0,11.1,0c1.9,0,3.8,0,5.7,0.1
	c4.5,0.3,6.6,2.1,6.9,6.6c0.4,7.8,0.4,15.6,0.6,23.3c0.1,2.8,0.1,5.7,0.1,8.5c-32.2,0-64.4,0-96.6,0c-0.1-8.9-0.3-17.9-0.2-26.8
	c0.2-25,0.6-50.1,0.8-75.1c0-3.9,1.9-6.2,5.3-7.3c3.2-1,6.5-1.5,9.8-2c2.5-0.3,5-0.1,7.6-0.3c1.5-0.1,3.4-0.3,3-2.3
	c-0.2-0.9-1.7-1.9-2.8-2.2c-1.7-0.4-3.6-0.4-5.3-0.2c-6.2,0.7-11.2-1.5-15.5-6c-1.6-1.7-2.3-3.2-2.3-5.5
	c-0.2-19.9-0.4-39.8-0.6-59.6c0-1.2-0.1-2.4-0.2-3.7c-14.5,0-28.6,0-43.1,0c0,1.3,0,2.5,0,3.6c0,12.8,0.1,25.7-0.1,38.5
	c-0.2,8.3-0.8,16.6-1.6,24.8c-0.4,4.3-3.5,6.6-7.6,7.2c-3.4,0.4-6.9,0.5-10.4,0.8c-1.8,0.2-4.4-0.5-4.4,2.2c-0.1,3,2.7,2.3,4.5,2.5
	c2.9,0.2,5.9,0.1,8.8,0.2c5.9,0.2,10.8,5.3,10.8,11.1c0,32,0,64,0,95.9c0,1.4,0.1,2.7,0.2,4.1C212.5,620,180.1,620,147.7,620z
	 M181.9,404.5c56.5,0,112.7,0,168.9,0c0-48.4,0-96.5,0-144.8c-56.4,0-112.6,0-168.9,0C181.9,308.1,181.9,356.2,181.9,404.5z
	 M350.9,193.9c0.1-0.5,0.1-0.9,0.1-1.3c-0.2-30.3-0.4-60.6-0.6-90.9c-0.1-10.2-2.7-19.9-7.3-29.1c-15.1-30.3-47.6-53.2-89.8-46.3
	c-31.2,5.1-52.4,23.8-65.6,51.9c-2.5,5.4-5.3,10.9-5.3,17.3c0.1,31.4,0,62.9,0,94.3c0,1.2,0,2.4,0,4
	C238.8,193.9,294.7,193.9,350.9,193.9z M220.3,479.6c0-16.1,0-32,0-48.1c-8,0-15.8,0-23.7,0c0,16.2,0,32.2,0,48.1
	C204.6,479.6,212.4,479.6,220.3,479.6z M336.3,479.6c0-16.2,0-32.2,0-48.1c-8,0-15.8,0-23.6,0c0,16.2,0,32.2,0,48.1
	C320.7,479.6,328.5,479.6,336.3,479.6z M196.5,533c0,16.2,0,32.1,0,48.1c8,0,15.8,0,23.7,0c0-16.1,0-32,0-48.1
	C212.3,533,204.5,533,196.5,533z M312.6,533c0,16.2,0,32.1,0,48.1c8,0,15.8,0,23.7,0c0-16.1,0-32.1,0-48.1
	C328.4,533,320.7,533,312.6,533z"/>
<path class="st0" d="M240,334.4c0-5.6,0-10.9,0-16.5c17.5,0,35,0,52.8,0c0,5.4,0,10.9,0,16.5C275.3,334.4,257.8,334.4,240,334.4z"/>
<path class="st0" d="M240,307.8c0-4.8,0-9.3,0-14c17.6,0,35.2,0,52.9,0c0,4.7,0,9.2,0,14C275.3,307.8,257.8,307.8,240,307.8z"/>
<path class="st0" d="M292.9,346.9c0,4.8,0,9.4,0,14.1c-17.7,0-35.2,0-52.8,0c0-4.7,0-9.3,0-14.1C257.5,346.9,275,346.9,292.9,346.9z
	"/>
<path class="st0" d="M282.6,120.6c0.3-14.4,12.3-26,27-25.2c15.9,0.8,25.3,11.1,25.5,27.1c0.1,14-12,25.2-26.3,25
	C293.7,147.3,282.3,135.6,282.6,120.6z"/>
<path class="st0" d="M252.7,121c0,14.9-11.3,26.4-26.2,26.5c-14.6,0.1-26.8-11.5-26.3-26c0.5-15.9,10.5-25.6,26.5-26.1
	C241.1,94.9,252.7,106.8,252.7,121z"/>
<path class="st0" d="M267.5,173.1c-6.7,0-13.4,0.2-20.1-0.1c-4.2-0.2-5.4-1.9-5.3-5.9c0.1-4.3,1.5-6.1,5.5-6.1
	c13.1-0.1,26.2-0.2,39.4,0.1c4.9,0.1,6.5,2,6.6,5.9c0,4.1-1.2,5.5-5.2,6.1c-1.2,0.2-2.5,0.4-3.8,0.4c-5.7,0-11.3,0-17,0
	C267.5,173.3,267.5,173.2,267.5,173.1z"/>
</svg>
