<?xml version="1.0" encoding="utf-8"?>
<!-- Generator: Adobe Illustrator 26.1.0, SVG Export Plug-In . SVG Version: 6.00 Build 0)  -->
<svg version="1.1" id="Layer_1" xmlns="http://www.w3.org/2000/svg" xmlns:xlink="http://www.w3.org/1999/xlink" x="0px" y="0px"
	 viewBox="0 0 617.2 619.4" style="enable-background:new 0 0 617.2 619.4;" xml:space="preserve">
<style type="text/css">
	.st0{fill:#FFFFFF;}
</style>
<path class="st0" d="M396.2,0c0.9,0.4,1.9,0.8,2.8,1.2c6.2,2.6,9.7,8.9,8.7,15.5c-1,6.7-6.1,11.8-12.8,12.3
	c-2.3,0.2-3.2,1.1-3.9,3.1c-4,11.5-8.1,22.9-12.3,34.8c1.4,0.1,2.5,0.2,3.6,0.2c12.5,0,25,0,37.5,0c10,0,17.6,4.2,22.3,13.1
	c1.1,2.1,2.5,1.8,4.1,1.8c10.9-0.1,19.6,4,25.8,13c3.2,4.7,4.8,10,4.8,15.7c0,8.9,0.1,17.8,0,26.8c-0.1,16.7-12.2,29-28.8,29.4
	c-0.9,0-1.8,0.1-3.1,0.2c0,6.1,0,12,0,18c0,2.9,0.1,5.9-0.4,8.8c-2.1,11.4-11.7,19.4-23.4,19.5c-9.6,0.1-19.3,0-29.4,0
	c2.6,8.2,3,16.2,0.1,24.6c1.4,0,2.5,0,3.6,0c12.2,0,24.3,0,36.5,0c14.6,0,24.7,10.1,24.7,24.8c0,58.8,0,117.5,0,176.3
	c0,14.8-10.1,25-24.9,25c-60.8,0-121.5,0-182.3,0c-14.6,0-24.9-10-24.9-24.7c-0.1-59-0.1-118,0-176.9c0-14.6,10.4-24.5,25-24.5
	c14.3,0,28.5,0,42.8,0c1.1,0,2.3,0,3.8,0c-2.8-8.3-2.7-16.3,0.1-24.6c-5,0-9.6,0-14.2,0c-6.2-0.1-12.4,0.2-18.5-0.5
	c-11.5-1.3-20.2-11.3-20.4-22.8c-0.1-6.6,0-13.2,0-19.8c0-1,0-2,0-3.2c-2.6-0.2-4.9-0.3-7.1-0.6c-13.4-2.1-23.4-11.9-24.4-25.4
	c-0.8-11.1-0.8-22.3,0-33.3c1.1-14.7,13.1-25.3,27.8-25.7c3.7-0.1,5.8-0.9,7.9-4.3c4.6-7.6,12-10.8,20.8-10.8c12.4,0,24.8,0,37.2,0
	c1.1,0,2.3,0,3.8,0c-0.3-1.1-0.5-2-0.7-2.8c-3.8-10.9-7.7-21.7-11.5-32.6c-0.5-1.5-1-2.4-2.9-2.5c-7.4-0.5-12.8-5.6-13.6-12.5
	c-0.9-7.3,3-13.4,10.1-15.9c0.5-0.2,0.9-0.4,1.4-0.7c1.9,0,3.8,0,5.7,0c0.2,0.1,0.3,0.3,0.5,0.3c11.5,2.7,15.5,17.4,6.2,25.5
	c-0.6,0.5-0.8,2.1-0.6,2.9c4.2,12.1,8.4,24.1,12.8,36.1c0.3,0.9,1.8,2,2.8,2c16.5,0.2,33,0.2,49.4,0.3c1.7,0,2.6-0.5,3.2-2.2
	c4.2-12,8.4-23.9,12.7-35.8c0.7-1.9,0-2.8-1.2-4c-7.9-7.6-5.2-20.2,5-24.2c0.8-0.3,1.5-0.6,2.2-1C392.4,0,394.3,0,396.2,0z
	 M370.9,392.4c1.5,1.6,3.1,3.2,4.7,4.9c1.7,1.9,3.5,2.2,5.4,0.4c2.9-2.7,5.8-5.4,8.8-8.1c1.9-1.8,2-3.5,0.2-5.4
	c-1.6-1.7-3.2-3.5-4.5-4.9c2.4-5,4.8-9.6,6.9-14.3c1-2.3,0.9-5.6,2.6-6.8c1.6-1.2,4.8-0.4,7.3-0.4c2.2,0,3.3-1,3.4-3.2
	c0.1-4.1,0.2-8.2,0.3-12.3c0.1-2.6-1.2-3.9-3.8-4c-2.4,0-4.8,0-6.7,0c-1.3-4.4-2.1-8.2-3.5-11.8c-1.3-3.6-3.2-7-4.9-10.7
	c1.6-1.5,3.3-3.1,5-4.7c1.9-1.7,1.9-3.3,0.2-5.1c-2.7-2.9-5.5-5.8-8.2-8.8c-1.8-1.9-3.5-2-5.4-0.2c-1.6,1.5-3.2,3-4.3,4
	c-7.5-3.5-14.7-6.9-22.1-10.3c0-1.6,0-3.8,0-6c0-2-0.9-3.2-3-3.3c-4.3-0.2-8.6-0.4-12.9-0.5c-2.2-0.1-3.3,1-3.5,3.2
	c-0.1,2.2-0.3,4.4-0.4,5.7c-7.9,2.9-15.3,5.6-23.1,8.5c-0.9-1-2.2-2.3-3.4-3.8c-1.8-2-3.6-2.3-5.6-0.3c-2.9,2.8-5.8,5.5-8.7,8.2
	c-2,1.8-1.8,3.6,0,5.4c1.4,1.4,2.7,2.9,3.5,3.7c-2.9,6.1-5.8,11.6-8.1,17.3c-2.2,5.3-1.9,5.5-7.7,5.5c-2.5,0-3.7,1-3.8,3.5
	c-0.1,2.6-0.3,5.2-0.3,7.9c-0.1,7.3-1.2,8,7.4,8.3c0.8,0,2.2,0.7,2.3,1.3c1.4,7.7,4.3,14.8,8.5,21.6c-1.7,1.6-3.2,3-4.7,4.4
	c-1.7,1.6-1.8,3.2-0.2,5c2.8,3.1,5.7,6.1,8.6,9.2c1.6,1.7,3.2,1.7,4.9,0.2c1.6-1.5,3.2-3,4.3-4c7.7,3.4,15,6.7,22.5,10
	c0,1.7,0,3.9,0,6.1c0,2.4,1.1,3.7,3.6,3.7c4,0.1,8,0.3,12,0.5c2.6,0.1,3.9-1,3.9-3.7c0-1.7-0.1-3.4,0.3-5c0.2-0.9,1.2-2.2,2.1-2.4
	C357.9,399.3,364.5,396.4,370.9,392.4z M434.6,91.7c-4.5,0-9-0.1-13.5,0c-11.3,0.2-19.3,7.9-19.6,19.1c-0.2,9.1-0.3,18.3,0,27.4
	c0.3,11.3,8.6,19.1,19.9,19.1c8.6,0,17.2,0,25.8,0c11.4-0.1,19.7-8.1,19.9-19.5c0.2-8.9,0.2-17.8,0-26.7
	c-0.2-11.2-8.2-19.1-19.4-19.4C443.4,91.7,439,91.7,434.6,91.7z M221,124.4L221,124.4c0,4.6-0.1,9.2,0,13.8
	c0.2,10.6,8,18.8,18.7,19.1c9.4,0.3,18.9,0.3,28.3,0c10.3-0.3,18.4-8.4,18.6-18.5c0.2-9.5,0.2-19.1,0-28.6
	c-0.2-9.7-7.8-17.9-17.4-18.2c-10.3-0.4-20.6-0.4-30.8,0c-9.5,0.4-17,8.5-17.3,18C220.9,114.7,221,119.5,221,124.4z M344.2,161.3
	C344.2,161.2,344.2,161.2,344.2,161.3c-8.8,0-17.6-0.1-26.4,0c-5.1,0-9.7,1.5-13.6,4.9c-5.9,5.3-5.8,13.2,0.1,18.4
	c3.7,3.3,8.1,4.8,13,4.9c17.8,0.1,35.7,0.1,53.5,0c5.3,0,10.1-1.8,13.9-5.7c4.8-5,4.8-12-0.1-16.9c-4-4-9-5.6-14.6-5.6
	C361.4,161.2,352.8,161.3,344.2,161.3z"/>
<path class="st0" d="M519.3,350.6c-16.3,1.7-24-11-20.5-23.1c-6.3-0.1-11.8-2.1-15.5-7.3c-3.8-5.3-4.1-11.1-1.7-17.3
	c-1.2-0.2-2.2-0.3-3.2-0.5c-7.4-1-12.4-5.1-14.5-12.1c-2.2-7.1-0.2-13.4,5.5-18.1c3.7-3.1,7.8-5.7,11.9-8.2
	c5.9-3.5,13.5-2.7,18.9,1.6c5.4,4.3,7.6,11.4,5.8,18.1c-0.2,0.8-0.5,1.6-0.8,2.7c6,0.2,11.3,2,15,7.1c3.6,4.9,4.1,10.4,2.5,16.5
	c6.7,0,12.3,2.1,16,7.8c3.6,5.6,3.6,11.4,0.8,17.8c7.1-1,13.1,0.5,17.6,6c4.4,5.5,4.8,11.6,2.3,18.4c8.4-0.1,14.2,3.6,17.4,10.6
	c3.7-0.6,7.1-1.7,10.6-1.7c7.3,0,11.8,4.8,15.6,10.3c4.1,5.7,8,11.5,11.9,17.4c4.4,6.7,2.7,15.5-3.6,19.8
	c-6.3,4.2-14.6,2.5-19.4-4.1c-1.3-1.8-2.5-3.6-4-5.8c-6.2,4.2-12.3,8.4-18.7,12.8c1.3,1.9,2.4,3.8,3.6,5.6c4.7,7.1,3.3,15.5-3.2,20
	s-15,2.8-19.8-4.2c-4.7-6.8-9.4-13.6-14-20.5c-4.3-6.5-3.4-15.5,2.1-21.2c0.7-0.7,1.5-1.4,2.4-2.3c-5.8-5.9-7.2-12.6-4.1-20.5
	c-6.7-0.1-12.2-2.4-15.9-8C516.5,362.5,516.7,356.6,519.3,350.6z"/>
<path class="st0" d="M102.6,267.5c12-3.6,25.9,4.5,23.1,21.4c15.8-2.1,22.4,2.5,24.4,17c2.1,0,4.3,0,6.8,0
	c-0.3-6.1,1.2-11.5,6.1-15.6c4.8-4,10.3-4.6,16-3.4c-0.3-3-1-5.9-0.8-8.7c0.5-6.8,4.1-11.6,10.3-14.3c6.3-2.7,12.4-1.9,17.7,2.6
	c3.6,3,7,6.4,10.1,9.9c4.8,5.4,5.4,13.4,1.8,19.7c-3.6,6.2-10.5,9.5-17.6,8.3c-0.7-0.1-1.4-0.2-2.6-0.4c2.3,6.7,1.9,12.8-2.6,18.2
	c-4.4,5.4-10.3,6.8-17.3,5.8c0.3,8.3-2.4,15.4-8.8,20.7c-4.3,3.6-9.4,5.4-15.1,5.5c-6.9,0.1-12.7-2.4-17.5-7.2
	c-4.7-4.8-6.8-10.7-7-17.3c-15.6,2.5-24.3-9.7-21.2-22.1c-7.1,2.3-13.7,1.9-19.2-3.4c-5.4-5.3-6.3-11.7-4.3-18.7
	c-3.4,0-6.9,0.6-10-0.1c-12.7-2.8-17.6-17.8-9.2-27.7c2.9-3.4,6.2-6.6,9.5-9.6c5.6-5.1,13.8-5.7,20.2-1.9c6.4,3.8,9.6,11.1,8,18.7
	C103.1,265.5,102.9,266.3,102.6,267.5z M144.6,330.4c0.1,4.9,4.4,9,9.2,8.8s8.8-4.2,8.7-9c0-4.9-4.2-9-9.1-9
	C148.6,321.3,144.5,325.5,144.6,330.4z"/>
<path class="st0" d="M290.7,509c14,6.3,15.3,24.6,0.3,32.2c6.2,3.1,10.2,7.8,10.7,14.7c0.5,7-2.7,12.3-8.8,16.3
	c20.4,8.9,31.4,24.1,32.6,46.5c-33.2,0-66,0-98.9,0c-1.2-14.2,8.5-39.6,36.9-47.9c-4.7-4.4-7.3-9.5-6.5-15.9
	c0.9-6.5,4.6-10.8,10.8-13.8c-6.7-3.4-10.9-8.3-10.9-15.9c0-7.7,4-12.8,10.9-16.1c-0.9-0.6-1.7-1-2.4-1.5c-6.7-3.9-10-11.5-8.1-18.8
	c1.9-7.4,8.4-12.6,16-12.8c3.7-0.1,7.3-0.1,11,0c8.6,0.1,15,5.1,17,13.1c1.9,7.6-1.6,15-8.9,19C292,508.4,291.5,508.6,290.7,509z"/>
<path class="st0" d="M456.6,619.4c-33,0-65.8,0-99.1,0c1.1-22.4,12.2-37.5,32.3-46.5c-13.9-9.8-9.6-26,2.2-31.1
	c-6.7-3.3-10.9-8.4-10.9-15.9c0-7.6,4-12.8,11-16.1c-1-0.6-1.9-1.1-2.7-1.6c-6.6-4-9.7-11.5-7.8-19c1.8-7.1,8.4-12.4,15.9-12.6
	c3.9-0.1,7.8-0.1,11.6,0c7.9,0.2,14.6,5.3,16.4,12.7c1.9,7.7-1.4,15.3-8.4,19.2c-0.6,0.4-1.3,0.7-2,1.1c14.4,6.7,14.7,25.3,0.3,32.1
	c11.9,5.8,14.6,19.8,4.1,29.7c13.7,3.9,24.2,11.9,31.1,24.3C454.7,603.1,456.9,610.9,456.6,619.4z"/>
<path class="st0" d="M28.6,230.7c5.6-5.6,10.9-10.8,16.4-16.4c-1.5-1.4-3.2-2.9-4.8-4.5c-5.7-5.9-5.7-14.5-0.1-20
	c5.5-5.5,14.1-5.4,20,0.4c5.9,5.8,11.8,11.7,17.6,17.6c6.2,6.2,6.8,16.6,0.6,23.1C67.6,242,56.6,253,45.4,263.7
	c-6.2,5.9-16.1,5.7-22.4-0.1c-6.6-6-13-12.2-19.2-18.6c-5.3-5.4-4.9-14.1,0.3-19.3c5.4-5.4,13.9-5.5,19.6-0.2
	C25.5,227.2,27.1,229.1,28.6,230.7z"/>
<path class="st0" d="M310.4,346c0.1-16.7,13.6-30.1,30.4-30c17.1,0,30.4,13.6,30.3,30.7c-0.1,16.8-13.8,30-30.8,29.9
	C323.6,376.5,310.3,362.9,310.4,346z M340.9,334.9c-6.6,0-11.6,4.9-11.7,11.4c0,6.3,5,11.4,11.3,11.5c6.5,0.1,11.6-5,11.6-11.5
	C352.2,339.9,347.3,334.9,340.9,334.9z"/>
<path class="st0" d="M434.1,142.9c-2.1,0-4.2,0-6.3,0c-6.8-0.1-11.7-4.9-11.9-11.7c-0.2-4.5-0.1-9,0-13.5
	c0.2-6.6,4.9-11.4,11.6-11.7c4.5-0.2,9-0.2,13.5,0c6.6,0.3,11.2,4.7,11.6,11.3c0.3,4.7,0.3,9.4,0,14.1c-0.4,6.9-5.3,11.3-12.2,11.4
	C438.3,143,436.2,142.9,434.1,142.9z"/>
<path class="st0" d="M272.2,124.5c0,2.3,0.1,4.6,0,6.9c-0.2,6.3-4.9,11.2-11.1,11.5c-4.9,0.2-9.9,0.2-14.8,0
	c-5.8-0.2-10.5-4.9-10.8-10.7c-0.2-5.1-0.2-10.3,0-15.4c0.2-5.4,4.2-10,9.6-10.4c5.7-0.5,11.5-0.5,17.2,0c5.6,0.5,9.6,5.2,9.8,10.9
	C272.2,119.7,272.2,122.1,272.2,124.5L272.2,124.5z"/>
</svg>
