<?xml version="1.0" encoding="utf-8"?>
<!-- Generator: Adobe Illustrator 26.1.0, SVG Export Plug-In . SVG Version: 6.00 Build 0)  -->
<svg version="1.1" id="Layer_1" xmlns="http://www.w3.org/2000/svg" xmlns:xlink="http://www.w3.org/1999/xlink" x="0px" y="0px"
	 viewBox="0 0 319.9 619.5" style="enable-background:new 0 0 319.9 619.5;" xml:space="preserve">
<style type="text/css">
	.st0{fill:#FFFFFF;}
</style>
<path class="st0" d="M219.6,620.1c-5.4-1.5-11.1-2.5-16.3-4.6c-36.5-14.8-45.4-62-17.2-89.9c29.5-29.1,79.8-17.8,91.6,24.9
	c10.5,38.2-19.4,65.8-45.3,69c-0.5,0.1-1,0.4-1.4,0.5C227.1,620.1,223.3,620.1,219.6,620.1z M224.6,595.7c16.9-0.1,31-14.4,31-31.4
	c0-16.6-14.5-30.4-31.9-30.3c-15.3,0-30.5,15.4-30.5,30.8C193.1,580.7,208.4,595.7,224.6,595.7z"/>
<path class="st0" d="M92.7,620.1c-4.6-1.1-9.2-1.9-13.6-3.5c-24.8-8.7-39-31.6-36.5-58.6c2.2-23,22.3-44,45.8-47.7
	c33.5-5.3,64.7,21.6,64.2,55.5c-0.4,27-21.2,50.2-48,53.8c-0.6,0.1-1.2,0.4-1.7,0.6C99.5,620.1,96.1,620.1,92.7,620.1z M97,595.7
	c16,0.3,31.4-14.3,31.8-30.2c0.3-16.1-15.1-32-31.6-32c-13.1,0-30.4,11.3-30.8,30.4C66,580.6,80.4,595.4,97,595.7z"/>
<path class="st0" d="M161.4,216.6c31.6,0,63.3,0,94.9,0.1c1.5,0,3.2,0.5,4.3,1.3c4.2,3.4,8.6,6.8,12.2,10.8c4.6,5,7,10.9,6.9,18.2
	c-0.1,43.5,0.2,86.9,0.3,130.4c0,7.7-0.1,15.4-0.7,23c-0.8,10.1-5.5,18.2-14,23.9c-6,4-12.3,6.3-19.9,6.3
	c-56.6-0.3-113.1-0.3-169.7-0.1c-11.4,0-19.8-5.2-26.8-13.4c-4.6-5.3-6.8-11.8-6.8-18.9c0-43.2-0.1-86.5,0.1-129.7
	c0-9.5,0-19,1.3-28.3c1.6-11.3,9.6-18.3,19.6-22.4c3.6-1.5,8.1-0.9,12.2-0.9c28.7-0.1,57.4,0,86.1,0
	C161.4,216.6,161.4,216.6,161.4,216.6z M161,405.9c28.8,0,57.6-0.1,86.4,0.1c3.3,0,5.1-1.3,6.2-4c0.6-1.3,1-2.8,1.1-4.2
	c0.3-3.7,0.7-7.3,0.7-11c0.1-40.1,0.2-80.2,0.2-120.3c0-6.4-0.5-12.8-0.8-19.2c-0.2-3.3-1.7-5.3-5.2-5.6c-4.9-0.3-9.8-1-14.8-1
	c-50-0.1-100.1-0.1-150.1,0c-4.2,0-8.4,0.5-12.6,0.8c-2.9,0.3-4.6,1.9-4.8,4.9c-0.4,4.5-1,9-1,13.5c-0.1,41.7-0.1,83.4,0,125
	c0,4.9,0.5,9.9,1.2,14.8c0.6,4.5,3,6.2,7.3,6.2C103.6,405.9,132.3,405.9,161,405.9z"/>
<path class="st0" d="M148.8,76.3c0-9.5,0-18.5,0-27.4c0-11.7,0.1-23.4-0.1-35c0-2.9,0.6-5.1,2.9-6.8c0.7-0.6,1.3-1.3,2-2
	c3.4-3,7.1-5,11.7-3.1c4.8,1.9,6.7,5.7,6.8,10.6c0.3,11,0.9,22.1,1.1,33.1c0.2,9.8,0,19.5,0,29.6c2.1,0.1,3.3,0.2,4.5,0.3
	c17.9,0.5,35.7,0.9,53.6,1.4c1.6,0.1,3.4,0.8,4.8,1.7c5.4,3.9,10.2,8.5,13.2,14.6c1.5,3,2.6,6.5,2.8,9.9c0.5,7.4,0.5,14.9,0.5,22.4
	c-0.1,21.3-0.3,42.5-0.6,63.7c0,1.8-0.9,3.7-1.7,5.5c-0.6,1.3-1.6,2.5-2.4,3.7c-6.3,8.6-14.1,13.8-25.4,13.8c-43-0.1-86,0.2-129,0.4
	c-0.9,0-1.9-0.1-2.7-0.5c-9.6-4.3-16-11.8-20.5-21c-0.4-0.9-0.4-2-0.4-3.1c0-29.1,0-58.3,0-87.4c0-1.5,0.6-3,1.2-4.4
	c1-2,2.2-3.9,3.3-5.7c5.9-9.1,13.9-14.3,25.1-14.2c15.1,0.1,30.3-0.1,45.4-0.1C146.1,76.3,147.3,76.3,148.8,76.3z M161,187.6
	c0,0.2,0,0.4,0,0.6c11.4,0,22.7,0.1,34.1,0c9.6-0.1,19.1-0.7,28.7-1c3.2-0.1,4-1.7,4-4.6c0.1-21.7,0.3-43.4,0.4-65c0-4-0.5-8-0.7-12
	c-0.2-3.5-2.3-4.9-5.6-5.1c-3.4-0.2-6.7-0.6-10.1-0.6c-27.8-0.2-55.5-0.4-83.3-0.3c-9.3,0-18.7,0.5-28,1c-4,0.2-5.3,1.7-5.9,5.7
	c-0.2,1.2-0.5,2.5-0.5,3.8c0.1,23.7,0.2,47.3,0.5,71c0.1,5.6,1,6.2,6.5,6.6c0.6,0.1,1.3,0.1,1.9,0.1
	C122.3,187.6,141.7,187.6,161,187.6z"/>
<path class="st0" d="M39.8,241.5c0,8.6,0,16.5,0,24.7c-4.4,0-8.8,0-13.6,0c0,1.7,0,3,0,4.3c0,39.1-0.1,78.3,0.1,117.4
	c0,5.6-3.5,7.8-7,10.2c-3.5,2.4-7.5,2.2-11-0.1c-4-2.6-6.8-5.5-6.7-11.3C2,350,1.8,313.3,2,276.6c0-8,0.6-16,1.3-23.9
	c0.6-6.9,2.8-9.3,9.6-9.9C21.6,242.1,30.6,241.9,39.8,241.5z"/>
<path class="st0" d="M295.8,266.4c-4.8,0-9.1,0-13.6,0c0-8.2,0-16.2,0-24.9c9.2,0.4,18.3,0.4,27.4,1.4c6.9,0.7,9.6,4.2,9.6,11
	c0.3,29.2,0.5,58.5,0.6,87.7c0,16.2-0.3,32.4-0.2,48.6c0,2.9-1,4.6-3.2,6.2c-6.9,5.1-15.9,3.5-20.2-3.9c-0.5-0.9-0.4-2.2-0.4-3.4
	c0-39.6,0-79.1,0-118.7C295.8,269.3,295.8,268.1,295.8,266.4z"/>
<path class="st0" d="M224.4,467.8c-10.9-0.7-22.9-1.2-34.8-2.4c-7.2-0.7-11-8.7-7.6-15.1c1.4-2.6,3.7-4.8,5.8-7
	c0.5-0.5,1.7-0.6,2.6-0.6c22.2,0,44.3,0,66.5,0c3.6,0,8.7,5.9,9.3,10.6c0.8,6.7-3.3,12.3-10,12.8C246,466.9,235.8,467.2,224.4,467.8
	z"/>
<path class="st0" d="M103.9,502.6c-11.5-0.4-23.1-0.6-34.6-1.3c-4.8-0.3-8.8-2.6-10.2-7.6c-1.4-4.8-0.6-9.3,3.2-12.7
	c1.4-1.2,3.5-2.3,5.3-2.3c11.8-0.4,23.5-0.7,35.3-0.7c9.6,0,19.1,0.4,28.7,0.6c1.5,0,2.9,0.3,4.4,0.6c6.8,1.5,10.3,9.6,6.5,15.5
	c-1.3,2.1-3,4.1-4.8,5.8c-0.8,0.7-2.2,1-3.4,1c-10.1,0.1-20.2,0-30.3,0C103.9,502,103.9,502.3,103.9,502.6z"/>
<path class="st0" d="M101.5,443.3c10.4,0,20.8-0.2,31.2,0.1c6.3,0.2,10.6,5,10.8,11.2c0.1,5.9-4.2,11.2-10.1,11.6
	c-8.7,0.6-17.4,0.7-26.1,0.7c-12.6-0.1-25.2-0.4-37.8-0.8c-6.9-0.2-11-4.6-11.1-11.4c-0.1-6.2,4.2-11,10.8-11.2
	C79.9,443.1,90.7,443.3,101.5,443.3L101.5,443.3z"/>
<path class="st0" d="M225.5,501.4c-10.3,0-20.6,0.1-30.9,0c-4,0-7.7-0.8-10.5-4.1c-3.3-3.9-4.1-8.4-1.6-12.8
	c2.3-4.1,4.9-6.8,10.7-6.7c20.9,0.5,41.8,0.4,62.7,0c4.6-0.1,6.3,2.3,8.3,5.2c2.2,3.1,3.2,6.6,1.4,10.1c-1.5,2.8-3.6,5.4-5.7,7.8
	c-0.6,0.7-2.1,0.8-3.2,0.8c-10.4,0.1-20.8,0-31.2,0C225.5,501.6,225.5,501.5,225.5,501.4z"/>
<path class="st0" d="M126.5,130c9.2,0,15.9,6.4,15.9,15.3c0,8.6-7,15.2-16.2,15.2c-8.8,0-15.4-6.4-15.5-14.8
	C110.5,136.7,117.3,130,126.5,130z"/>
<path class="st0" d="M196.2,130c9.2,0.1,16.1,6.8,16,15.5c-0.1,8.2-7.6,15.1-16.3,15.1c-8.8,0-15-6.6-14.9-16
	C181,136.2,187.6,129.9,196.2,130z"/>
</svg>
