<?xml version="1.0" encoding="utf-8"?>
<!-- Generator: Adobe Illustrator 26.1.0, SVG Export Plug-In . SVG Version: 6.00 Build 0)  -->
<svg version="1.1" id="Layer_1" xmlns="http://www.w3.org/2000/svg" xmlns:xlink="http://www.w3.org/1999/xlink" x="0px" y="0px"
	 viewBox="0 0 520 619.5" style="enable-background:new 0 0 520 619.5;" xml:space="preserve">
<path d="M260.9,133.3c10.3,0,18.6,8.3,18.6,18.6s-8.3,18.6-18.6,18.6c-10.3,0-18.6-8.3-18.6-18.6
	C242.2,141.6,250.6,133.3,260.9,133.3z" fill="white"/>
<rect x="233.1" y="494.8" width="42.6" height="16.4" fill="white"/>
<rect x="233.1" y="519.7" width="42.6" height="16.4" fill="white"/>
<rect x="233.1" y="541.9" width="42.6" height="16.4" fill="white"/>
<path d="M275.7,579.7v-12.8h-42.6v12.8c-14.2,7.6-23.8,22.6-23.8,39.8c67.4,0,44.4,0,90.3,0C299.5,602.2,289.8,587.3,275.7,579.7z" fill="white"
	/>
<rect x="330.8" y="494.8" width="42.6" height="16.4" fill="white"/>
<rect x="330.8" y="519.7" width="42.6" height="16.4" fill="white"/>
<rect x="330.8" y="541.9" width="42.6" height="16.4" fill="white"/>
<path d="M373.4,579.7v-12.8h-42.6v12.8c-14.2,7.6-23.8,22.6-23.8,39.8c67.5,0,44.4,0,90.3,0C397.2,602.2,387.6,587.3,373.4,579.7z"
	 fill="white"/>
<path d="M344.3,133.3c10.3,0,18.6,8.3,18.6,18.6s-8.3,18.6-18.6,18.6c-10.3,0-18.6-8.3-18.6-18.6S334,133.3,344.3,133.3z" fill="white"/>
<path d="M491.7,425.2L491.7,425.2l-79.8-158.1h-0.1l0,0h-62.1v-39.3H393V100.4h-52.5V74.2h-34.6V19.4h7.1V0h-10.4h-10.4v19.4h7.1
	v54.9h-34.7v26.2h-52.4v127.3h43.3v39.3h-62.7l-47.7,58.7l-84.5-76.6v-31.1h-17v43.6H0v17.1h34.7l114.7,103.9l43.4-53.2v128.1h39.3
	v29.5h42.5v-29.5h55.2v29.5h42.7v-29.5h39.3V354.1l42.2,83.4l-13.5,31.9l15.7,6.6l16.9-40.1l40.1,16.9l6.6-15.7L491.7,425.2z
	 M376,151.9c0,17.5-14.2,31.7-31.7,31.7s-31.7-14.2-31.7-31.7s14.2-31.7,31.7-31.7S376,134.4,376,151.9z M229.2,151.9
	c0-17.5,14.2-31.7,31.7-31.7s31.7,14.2,31.7,31.7s-14.2,31.7-31.7,31.7C243.4,183.6,229.2,169.4,229.2,151.9z M320.7,414.7H226
	v-25.2h94.8L320.7,414.7L320.7,414.7z M320.7,374.9H226v-25.2h94.8L320.7,374.9L320.7,374.9z M320.7,334.3H226v-25.2h94.8
	L320.7,334.3L320.7,334.3z M302.6,208.9h-35.5v-12.6h35.5h35.5v12.6H302.6z M380.5,414.7h-45.6v-25.2h45.6V414.7z M380.5,374.9
	h-45.6v-25.2h45.6V374.9z M380.5,334.3h-45.6v-25.2h45.6V334.3z" fill="white"/>
</svg>
