<?xml version="1.0" encoding="utf-8"?>
<!-- Generator: Adobe Illustrator 26.1.0, SVG Export Plug-In . SVG Version: 6.00 Build 0)  -->
<svg version="1.1" id="Layer_1" xmlns="http://www.w3.org/2000/svg" xmlns:xlink="http://www.w3.org/1999/xlink" x="0px" y="0px"
	 viewBox="0 0 618.5 618.6" style="enable-background:new 0 0 618.5 618.6;" xml:space="preserve">
<style type="text/css">
	.st0{fill:#FFFFFF;}
</style>
<path class="st0" d="M0,475.9c0.7-3.5,1.3-7,2.3-10.4c3.9-14.6,12.1-26.2,24.6-34.8c2.9-2,4.2-4.2,4.3-7.9
	c1.1-23.5,3.9-46.7,11.1-69.2c9-27.9,23.3-52.2,46.1-71.3c17.7-14.8,38-23.7,60.6-27.9c6.1-1.1,12.2-1.8,18.8-2.7
	c0-0.6,0.1-1.7,0.1-2.8c0.1-8.4,0.3-16.8,0.4-25.2c0-12.7,10.9-24.1,26-24.1c14.4-0.1,28.8-0.3,43.2-0.5c1.2,0,2.5,0,4,0
	c0-10.5,0-20.8,0-31.4c-10.4,0-20.7,0-31.3,0c0-7.3-0.1-14.2,0.1-21.1c0.1-2.3-0.6-3.3-2.8-4c-8.7-2.7-17.4-5.7-26.1-8.4
	c-2.1-0.7-2.7-1.6-2.7-3.8c0.1-8.4,0.1-16.8,0.1-25.5c-1.2-0.1-2.2-0.1-3.2-0.1c-8.3,0-16.6,0-24.9,0c-5.3,0-5.3,0-7.3,4.9
	c-6.3,15.3-22,26-38.5,26.1c-16.2,0-28.3-7.6-36.3-21.2C60.5,101,60.8,87,68.5,73.4C78.9,55,96.6,49.5,114.6,53.5
	c13.9,3,23.9,12.4,29.2,26c1.1,2.7,2.3,3.6,5.2,3.5c9.8-0.2,19.5-0.1,29.7-0.1c0-5.8,0-11.3,0-16.9c0-3.9-1.2-8.7,0.7-11.3
	c1.8-2.5,6.8-2.7,10.4-3.9c6.8-2.2,13.5-4.5,19.9-6.6c0.6-5.9,0.7-11.5,1.8-16.9c2.9-13.8,18.1-26.7,32.1-26.9
	C274,0,304.4,0,334.8-0.1c14.6,0,29.2,0,43.9,0.1c1.6,0,3.3,0.6,4.8,1.2c1.6,0.6,3,1.6,4.4,2.4c13.2,7.1,19.9,18.2,20.5,33.1
	c0.3,7.4,0.3,7.4,7.4,9.7c7.3,2.4,14.5,4.8,21.9,7.1c1.8,0.6,2.4,1.4,2.4,3.3c-0.1,8.5,0,17,0,25.9c1.3,0.1,2.4,0.2,3.5,0.2
	c8.7,0,17.5-0.1,26.2,0.1c2.9,0.1,4.1-0.8,5.2-3.5c5.6-14.1,16.1-23.3,30.7-26.5c23-5,45.5,10.7,49.4,33.5
	c4,23.8-11.5,45.9-35.3,48.9c-18.7,2.4-35.8-6.7-44.3-26.3c-1.5-3.4-3-4.6-6.8-4.5c-9.3,0.3-18.7,0.1-28.6,0.1c0,2,0,3.8,0,5.6
	c0,6.7-0.1,13.5,0,20.2c0,2-0.6,2.9-2.5,3.5c-9.6,3-19.2,6.2-28.9,9.4c0,7.9,0,15.8,0,24c-10.5,0-20.8,0-31.3,0
	c0,10.6,0,20.8,0,31.5c1.3,0,2.5,0,3.7,0c14.4,0.2,28.8,0.3,43.2,0.5c8.2,0.1,15.1,2.7,20.5,9.3c4.6,5.5,5.6,11.9,5.8,18.6
	c0.3,7,0.1,14.1,0.2,21.1c0,1.1,0,2.3,0,3.1c6.9,1,13.6,1.8,20.1,3.1c48.3,9.6,80.3,38.9,99.6,83.3c8.7,20,13,41.2,15.2,62.8
	c0.8,8.3,1.3,16.6,2,24.8c0.1,1.1,0.8,2.3,1.7,3.1c1.8,1.6,3.8,3,5.7,4.5c31.2,24.4,31.3,73.4,0.2,97.9c-5.9,4.7-11.9,4.4-16.1-0.8
	c-2.9-3.5-3.1-7.4-0.4-11c1.9-2.5,4.1-4.8,6.2-7.1c11.4-12.3,15.9-26.6,10.6-42.7c-5.2-15.9-16.9-25.6-33.2-28.5
	c-17.1-3-30.6,4.1-40.9,17.6c-11,14.4-10.6,39.2,5.5,54.1c1.8,1.7,3.7,3.5,5.3,5.4c3.3,4.1,3.1,9.3-0.2,13c-3.4,3.8-9,4.8-13.1,1.5
	c-4.6-3.6-8.9-7.7-12.6-12.3c-20.9-26.1-16.6-64.7,9.2-86c1.5-1.2,2.8-2.6,4.5-3.5c3.9-2.2,4.8-5.2,4.5-9.6
	c-1.5-21-4.1-41.6-12.8-61.1c-8.8-19.8-22.4-34.7-43.5-41.5c-3.6-1.2-7.3-2.1-10.9-3c-4-1-5.5,0-5.9,4.1c-0.4,3.8-0.6,7.6-0.6,11.3
	c-0.1,14.5,0,29-0.1,43.5c0,6.6-0.5,13.2-0.5,19.9c-0.1,10.5-5.3,17.7-14.5,21.6c-4.4,1.8-5.7,4.1-5.4,8.5c0.4,4.9,0.1,9.8,0.1,15.2
	c4,0,7.7-0.1,11.3,0c3.5,0.1,6.9,0.3,10.4,0.8c5.6,0.7,8,3.2,8.7,8.7c0.4,2.6,0.6,5.2,0.7,7.9c0.1,15.6,0.2,31.1,0.2,46.7
	c0,4-5,9.1-9.2,9.3c-6.2,0.2-12.4,0.2-18.6,0.3c-1,0-2.1,0-3.3,0c0,10.5,0,20.8,0,31.2c4.3,0.2,8.6,0.2,12.8,0.7
	c8.7,1,16.1,4.5,21.9,11.2c4.6,5.4,5.9,11.9,6,18.5c0.1,7,0.1,14.1-0.9,21c-1.6,11-13.8,21.5-24.7,21.7
	c-36.1,0.4-72.2,0.5-108.2,0.8c-0.3,0-0.6-0.1-1.3-0.2c0-66.3,0-132.6,0-199.1c-17.9,0-35.4,0-53.1,0c0,66.3,0,132.5,0,199.1
	c-1.2,0.1-2.2,0.2-3.2,0.2c-30.7-0.1-61.4-0.1-92.1-0.2c-4.3,0-8.7-0.7-12.9-0.4c-12.2,1-26.7-13.6-27.2-24.6
	c-0.4-7.9-0.6-15.8,0.3-23.6c1.5-12.4,11.6-22.1,23.9-23.9c5.4-0.8,10.8-1.1,16.5-1.6c0-10.1,0-20.2,0-30.9c-5,0-10,0-15,0
	c-1.7,0-3.4,0-5-0.1c-6.8-0.3-11.1-4.8-11-11.7c0.2-17.2,0.4-34.5,0.8-51.7c0.1-5.1,2-7.7,7-8.6c5.8-1,11.7-1.1,17.5-1.5
	c1.9-0.1,3.7,0,6,0c0-7,0-13.7-0.1-20.4c0-0.5-1.1-1.3-1.9-1.6c-10.1-2.9-17.6-12.2-17.8-22.7c-0.4-21.1-0.5-42.3-0.7-63.4
	c0-3.7-0.2-7.4-0.5-11c-0.4-5.2-1.8-6.1-7-4.9c-30.2,7.1-49,26.1-58,55.5c-5.4,17.5-7.6,35.5-8.2,53.7c0,1.2,0.9,2.7,1.8,3.6
	c5.2,4.9,11.1,9.2,15.6,14.6c21.5,26.3,17.7,65.1-8.3,86.9c-3.3,2.8-6.8,5.3-11.7,4c-6.6-1.7-10.2-10-5.4-15.4
	c2.2-2.5,4.4-5.1,6.7-7.5c13-13.6,15.5-32.4,6.6-48.6c-8.9-16.1-26.7-24.6-44.8-21.2c-17.4,3.3-31.7,18.6-33.6,36.5
	c-1.3,12.8,2.9,24,11.6,33.5c2.3,2.5,4.6,4.9,6.7,7.6c3.3,4.2,3.2,7.9,0,11.6c-3.4,3.9-8.6,5.1-12.8,2.8c-1.4-0.8-2.7-1.7-3.9-2.7
	c-12.4-10.5-19.9-23.7-22-39.9c-0.1-0.7-0.4-1.4-0.6-2.1C0,484.3,0,480.1,0,475.9z M251,356.2c29.6-0.2,52.9-23.7,52.7-53
	c-0.2-28.5-24.5-52.5-53.4-51.7c-25.8,0.7-51,21.3-51,52.6C199.4,332.4,223.2,356.4,251,356.2z M262.2,198.8c31.6,0,62.8,0,94,0
	c0-10.4,0-20.7,0-30.9c-31.5,0-62.6,0-94,0C262.2,178.3,262.2,188.4,262.2,198.8z M305.9,135.8c27.9,0.4,49.5-15.3,50.4-40.8
	c0.2-5.9-3.6-10.9-9-11.2c-6.5-0.4-11.2,3.8-11.5,10.1c-0.4,8.8-5.1,15.4-13.5,18.3c-8.5,3-17.1,3-25.7,0.1
	c-8.7-3-13.4-9.5-13.9-18.7c-0.3-5.7-4.8-10.1-10.4-10.2c-5.2-0.1-9.9,4.4-10,10.1c-0.2,12.1,3.8,22.5,13.1,30.5
	C285.4,132.6,297.3,135.6,305.9,135.8z M367,335.7c-14,0-28,0-41.9,0c-4.9,0-8.3,2.6-9.8,7.3c-1.8,5.8,2.9,13.2,8.5,13.2
	c26-0.1,51.9-0.1,77.9-0.3c3.9,0,7.8-0.5,11.6-1.3c4.5-1,6.6-5,5.9-10.1c-0.7-4.7-4.7-8.8-8.6-8.8C396,335.7,381.5,335.7,367,335.7z
	 M372.3,313.9c12.2,0,24.4-0.2,36.6,0.1c3.7,0.1,6.1-1.2,8.2-4c2.4-3.1,3-6.5,1.4-10.1c-1.6-3.5-4.3-5.6-8.3-5.8
	c-4-0.2-8-0.5-12-0.6c-20.4-0.1-40.8-0.1-61.2-0.2c-5.4,0-9.4,2.7-11.4,7.8c-2.3,5.7,2.4,12.7,8.5,12.7
	C346.9,313.9,359.6,313.9,372.3,313.9z M377.5,272.2c10.4,0,20.8,0,31.2,0c5.1,0,8.7-2.8,10.1-7.8c1.6-5.8-3.3-12.6-9.3-12.7
	c-20.9-0.2-41.8-0.4-62.7-0.7c-5.6-0.1-11.1,5.3-11.1,10.9c-0.1,5.4,4.6,10.2,10,10.2C356.3,272.2,366.9,272.2,377.5,272.2z
	 M178.8,492.7c13.8,0,27.3,0,40.8,0c0-10.5,0-20.7,0-31.1c-13.7,0-27.2,0-40.8,0C178.8,472.1,178.8,482.2,178.8,492.7z M439.6,492.9
	c0-10.7,0-21,0-31.3c-13.7,0-27.1,0-40.7,0c0,10.4,0,20.7,0,31.1c0.5,0.1,0.9,0.2,1.3,0.2C413.3,492.9,426.3,492.9,439.6,492.9z
	 M209.7,93.9C209.7,93.9,209.6,93.9,209.7,93.9c0-7.6,0-15.1-0.1-22.7c0-1.2-1.1-3.5-1.4-3.5c-2.6,0.3-5.3,0.9-7.8,1.9
	c-0.7,0.3-1.1,2.1-1.1,3.2c-0.1,13.2,0,26.5,0,39.7c0,5.4,0,5.4,5,7.1c4,1.3,5.1,0.8,5.3-3.3C209.8,108.8,209.7,101.4,209.7,93.9z
	 M419.3,93.7c0-6.4-0.3-12.8,0.1-19.2c0.3-3.9-1.2-5.3-4.6-6.3c-4.7-1.3-5.8-1-5.9,3.9c-0.3,13.8-0.4,27.7-0.2,41.5
	c0.1,7.3,0.9,7.4,7.9,5.1c2.2-0.7,2.8-1.8,2.8-4C419.2,107.8,419.3,100.7,419.3,93.7z M272.3,41.8c-5.3,0-10.2,4.8-10.3,10
	c-0.1,5.7,5.3,10.7,11.4,10.7c5.1,0,9.2-4.7,9.1-10.4C282.5,46.4,277.8,41.8,272.3,41.8z M346.1,41.8c-5.7,0.1-10.3,4.9-10.3,10.6
	c0.1,5.7,4.3,10.1,9.6,10c5.5-0.2,11.1-5.8,11-11C356.4,46.5,351.3,41.8,346.1,41.8z"/>
<path class="st0" d="M251,273c20.1-0.9,31.7,16.5,31.7,30.9c0,17-14.1,31.2-31.1,31.2c-17.1,0-31.1-14-31.5-30.9
	C219.8,288.3,235.1,271.6,251,273z"/>
</svg>
